<svg id="Calque_1" data-name="Calque 1" xmlns="http://www.w3.org/2000/svg" viewBox="0 0 51.73 15.51"><defs><style>.cls-1{fill:#ec6164;}</style></defs><title>logo</title><path class="cls-1" d="M7.52,25l-2.8,2.86v4H2.51V16.31H4.72V25l8.35-8.68h2.52L9,23.28l7,8.55H13.48Z" transform="translate(-2.51 -16.31)"/><path class="cls-1" d="M27.51,23.51l-5.23-3.05-2.89-1.68-2.86,5,0,4.68,5.18,3.05.52-.31V26.78l2.33-4.11L27,24v4.41l.53-.3Z" transform="translate(-2.51 -16.31)"/><path class="cls-1" d="M30,30.33l1-1.86a8.55,8.55,0,0,0,4.57,1.34c2.2,0,3.07-.67,3.07-1.81,0-2.94-8.25-.41-8.25-5.62,0-2.37,2.1-3.92,5.43-3.92a9.75,9.75,0,0,1,4.77,1.18l-1,1.86a6.7,6.7,0,0,0-3.75-1c-2.05,0-3.07.77-3.07,1.81,0,3.09,8.25.56,8.25,5.67,0,2.38-2.15,3.87-5.64,3.87A8.91,8.91,0,0,1,30,30.33Z" transform="translate(-2.51 -16.31)"/><path class="cls-1" d="M54.24,23.63v7.66H52.07V29.6c-.74,1.14-2.18,1.79-4.16,1.79-2.86,0-4.64-1.54-4.64-3.73,0-2,1.28-3.68,5-3.68h3.61v-.45c0-1.94-1.14-3-3.36-3a6.66,6.66,0,0,0-4,1.34l-.94-1.74a8.29,8.29,0,0,1,5.19-1.64C52.31,18.51,54.24,20.2,54.24,23.63ZM52,27.41V25.62H48.46c-2.28,0-2.92.9-2.92,1.94,0,1.24,1,2,2.77,2A3.5,3.5,0,0,0,52,27.41Z" transform="translate(-2.51 -16.31)"/></svg>